<svg xmlns="http://www.w3.org/2000/svg" enable-background="new 0 0 64 64" viewBox="0 0 64 64"><path d="M10.54,30.09c-0.69,0-1.36-0.23-1.91-0.67c-0.65-0.51-1.06-1.24-1.15-2.06c-0.1-0.82,0.13-1.63,0.64-2.28l14-17.73
						c0.33-0.42,0.94-0.49,1.36-0.16c0.42,0.33,0.49,0.94,0.16,1.36l-14,17.73c-0.19,0.24-0.28,0.54-0.24,0.85
						c0.04,0.31,0.19,0.58,0.43,0.77c0.24,0.19,0.54,0.28,0.85,0.24c0.31-0.04,0.58-0.19,0.77-0.43L25.46,9.98
						c0.33-0.42,0.94-0.49,1.36-0.16c0.42,0.33,0.49,0.94,0.16,1.36L12.97,28.91c-0.51,0.65-1.24,1.06-2.06,1.15
						C10.79,30.08,10.66,30.09,10.54,30.09z"/><path d="M26.04 11.55c-.94 0-1.84-.31-2.59-.9-.88-.7-1.44-1.69-1.57-2.8-.13-1.11.18-2.21.87-3.09.69-.88 1.69-1.44 2.8-1.57 1.11-.13 2.21.18 3.09.87.88.7 1.44 1.69 1.57 2.8.13 1.11-.18 2.21-.87 3.09-.69.88-1.69 1.44-2.8 1.57C26.37 11.54 26.21 11.55 26.04 11.55zM26.06 5.1c-.09 0-.18 0-.27.02-.6.07-1.13.37-1.51.84-.37.47-.54 1.06-.47 1.66.07.6.37 1.13.84 1.51.47.37 1.06.54 1.66.47.6-.07 1.13-.37 1.51-.84 0 0 0 0 0 0 .37-.47.54-1.06.47-1.66-.07-.6-.37-1.13-.84-1.51C27.05 5.27 26.56 5.1 26.06 5.1zM53.46 30.09c-.12 0-.24-.01-.37-.02-.82-.1-1.55-.51-2.06-1.15L37.02 11.18c-.33-.42-.26-1.03.16-1.36.42-.33 1.03-.26 1.36.16l14.01 17.73c.19.24.46.39.77.43.3.04.61-.05.85-.24.24-.19.39-.46.43-.77.04-.3-.05-.61-.24-.85l-14-17.73c-.33-.42-.26-1.03.16-1.36.42-.33 1.03-.26 1.36.16l14 17.73c.51.65.74 1.46.64 2.28-.1.82-.51 1.55-1.15 2.06C54.82 29.86 54.15 30.09 53.46 30.09z"/><path d="M37.96 11.55c-.17 0-.33-.01-.5-.03-1.11-.13-2.11-.69-2.8-1.57-.69-.88-1.01-1.98-.87-3.09.13-1.11.69-2.11 1.57-2.8.88-.69 1.98-1 3.09-.87 1.11.13 2.11.69 2.8 1.57.69.88 1.01 1.98.87 3.09-.13 1.11-.69 2.11-1.57 2.8C39.8 11.24 38.9 11.55 37.96 11.55zM37.94 5.1c-.5 0-.99.17-1.39.49-.47.37-.77.91-.84 1.51-.07.6.1 1.19.47 1.66 0 0 0 0 0 0 .37.47.91.77 1.51.84.6.07 1.19-.1 1.66-.47.47-.37.77-.91.84-1.51.07-.6-.1-1.19-.47-1.66-.37-.47-.91-.77-1.51-.84C38.12 5.11 38.03 5.1 37.94 5.1zM61.09 33.68H2.91c-1.6 0-2.91-1.3-2.91-2.91v-3.71c0-1.6 1.3-2.91 2.91-2.91h6.42c.54 0 .97.43.97.97 0 .54-.43.97-.97.97H2.91c-.53 0-.97.43-.97.97v3.71c0 .53.44.97.97.97h58.18c.53 0 .97-.43.97-.97v-3.71c0-.54-.44-.97-.97-.97h-6.43c-.54 0-.97-.43-.97-.97 0-.54.43-.97.97-.97h6.43c1.6 0 2.91 1.3 2.91 2.91v3.71C64 32.37 62.7 33.68 61.09 33.68z"/><path d="M49.26 26.08H14.74c-.54 0-.97-.43-.97-.97 0-.54.43-.97.97-.97h34.52c.54 0 .97.43.97.97C50.23 25.65 49.8 26.08 49.26 26.08zM51.43 60.84H12.57c-1.79 0-3.34-1.21-3.76-2.95L2.62 32.94c-.13-.52.19-1.05.71-1.18.51-.13 1.05.19 1.17.71l6.19 24.95c.21.87.99 1.47 1.88 1.47h38.86c.89 0 1.67-.61 1.88-1.47l6.19-24.95c.13-.52.66-.83 1.17-.71.52.13.84.66.71 1.18l-6.19 24.95C54.76 59.63 53.22 60.84 51.43 60.84z"/><path d="M32 54.99c-1.6 0-2.91-1.3-2.91-2.91V39.23c0-1.6 1.3-2.91 2.91-2.91 1.6 0 2.91 1.31 2.91 2.91v12.85C34.91 53.68 33.6 54.99 32 54.99zM32 38.26c-.53 0-.97.43-.97.97v12.85c0 .54.44.97.97.97.53 0 .97-.43.97-.97V39.23C32.97 38.69 32.54 38.26 32 38.26zM43.37 54.91c-.19 0-.37-.02-.56-.05-.76-.15-1.42-.59-1.85-1.23-.43-.64-.59-1.42-.44-2.18l2.48-12.7c.15-.76.59-1.42 1.23-1.86.65-.43 1.42-.59 2.18-.44 1.57.31 2.6 1.84 2.3 3.41l-2.48 12.7C45.96 53.92 44.76 54.91 43.37 54.91zM45.84 38.33c-.19 0-.38.06-.54.17-.22.14-.36.36-.41.62l-2.48 12.7c-.05.25 0 .51.15.73.14.21.36.36.62.41.55.1 1.04-.25 1.14-.77l2.48-12.7c.1-.52-.24-1.04-.77-1.14C45.97 38.34 45.91 38.33 45.84 38.33zM20.63 54.91c-1.39 0-2.59-.99-2.85-2.35l-2.48-12.7c-.31-1.57.72-3.1 2.3-3.41.76-.15 1.54.01 2.18.44.65.43 1.08 1.09 1.23 1.86l2.48 12.7c.15.76-.01 1.54-.44 2.18-.43.64-1.09 1.08-1.86 1.23C21 54.9 20.82 54.91 20.63 54.91zM18.16 38.33c-.06 0-.12.01-.19.02-.53.1-.87.61-.77 1.14l2.48 12.7c.1.52.61.87 1.14.77.26-.05.48-.2.62-.41.14-.21.2-.47.15-.73l-2.48-12.7c-.05-.25-.2-.47-.41-.62C18.53 38.39 18.35 38.33 18.16 38.33z"/></svg>